<?xml version="1.0" standalone="no"?>
<!DOCTYPE svg PUBLIC "-//W3C//DTD SVG 20010904//EN"
 "http://www.w3.org/TR/2001/REC-SVG-20010904/DTD/svg10.dtd">
<svg version="1.0" xmlns="http://www.w3.org/2000/svg"
 width="256.000000pt" height="256.000000pt" viewBox="0 0 256.000000 256.000000"
 preserveAspectRatio="xMidYMid meet">

<g transform="translate(0.000000,256.000000) scale(0.100000,-0.100000)"
fill="#000000" stroke="none">
<path d="M204 2535 c-36 -18 -57 -37 -75 -67 -22 -40 -24 -53 -24 -183 0 -121
3 -149 24 -210 63 -185 159 -312 316 -417 90 -61 209 -105 381 -143 20 -4 22
0 27 73 3 42 8 84 12 93 5 13 -6 18 -59 27 -248 41 -441 222 -491 463 -19 91
-19 139 1 168 14 20 23 23 58 19 59 -7 155 -58 250 -132 83 -65 298 -279 330
-328 10 -16 22 -28 26 -28 4 0 22 13 39 29 18 17 54 40 81 53 27 13 49 27 50
32 1 31 -194 239 -299 320 -291 223 -507 301 -647 231z"/>
<path d="M789 2541 c-35 -19 -66 -48 -58 -55 41 -33 198 -126 213 -126 39 0
121 -47 167 -96 51 -53 100 -127 142 -215 24 -52 30 -57 74 -70 26 -8 52 -14
56 -14 5 0 17 26 28 59 l20 58 -31 65 c-71 152 -216 306 -349 370 -63 31 -88
38 -151 40 -59 3 -83 -1 -111 -16z"/>
<path d="M1735 2506 l-150 -52 -3 -36 c-2 -26 7 -57 33 -109 32 -62 35 -73 21
-81 -44 -24 -79 -67 -112 -134 -30 -59 -38 -89 -42 -150 -4 -71 -6 -75 -26
-69 -87 25 -136 28 -202 11 -120 -29 -194 -101 -235 -229 -21 -67 -23 -160 -3
-224 l6 -23 -38 17 c-26 11 -69 17 -130 17 -90 1 -92 0 -147 -37 -71 -49 -77
-67 -40 -120 45 -66 153 -176 218 -222 128 -91 306 -164 475 -194 36 -7 73
-14 83 -17 34 -10 19 173 -20 231 -7 11 -13 23 -13 26 0 4 53 9 118 11 103 3
124 6 167 29 41 21 55 35 80 84 27 53 30 67 29 154 0 69 -6 112 -20 152 l-20
56 117 -5 c185 -7 312 32 365 113 25 39 22 157 -7 226 -49 116 -140 217 -257
285 l-66 39 110 5 c119 5 144 15 144 56 0 42 -34 54 -150 54 -103 0 -108 -1
-189 -40 -46 -22 -85 -39 -86 -38 -1 2 -12 22 -24 46 -16 32 -18 44 -9 47 7 3
65 22 128 43 100 34 116 42 125 66 13 38 -4 61 -46 63 -19 1 -99 -21 -184 -51z
m240 -365 c131 -61 190 -241 106 -324 -29 -30 -36 -32 -99 -31 -78 1 -118 17
-179 77 -57 55 -80 121 -63 182 27 97 136 142 235 96z"/>
<path d="M536 1083 c-8 -38 -20 -101 -27 -141 l-12 -73 79 -80 c184 -186 425
-300 701 -333 l52 -7 45 93 c24 51 47 105 50 120 7 31 9 30 -112 48 -151 22
-359 106 -498 201 -67 46 -195 168 -229 217 -9 12 -20 22 -25 22 -5 0 -15 -30
-24 -67z"/>
<path d="M505 564 c10 -68 60 -218 89 -266 13 -22 40 -59 60 -81 19 -23 55
-67 79 -97 37 -48 127 -120 149 -120 5 0 8 32 8 70 0 60 2 70 18 70 44 0 272
135 272 161 0 4 -26 11 -57 14 -192 22 -425 123 -553 239 -72 66 -73 66 -65
10z"/>
</g>
</svg>
