<?xml version="1.0" standalone="no"?>
<!DOCTYPE svg PUBLIC "-//W3C//DTD SVG 20010904//EN"
 "http://www.w3.org/TR/2001/REC-SVG-20010904/DTD/svg10.dtd">
<svg version="1.0" xmlns="http://www.w3.org/2000/svg"
 width="92.000000pt" height="40.000000pt" viewBox="0 0 92.000000 40.000000"
 preserveAspectRatio="xMidYMid meet">

<g transform="translate(0.000000,40.000000) scale(0.100000,-0.100000)"
fill="#000000" stroke="none">
<path d="M670 210 l-35 -7 37 -2 c20 0 39 -7 41 -13 4 -8 6 -7 6 4 1 9 9 19
19 21 29 8 -30 5 -68 -3z"/>
<path d="M105 190 c-13 -21 27 -54 86 -70 42 -12 38 15 -3 29 -18 6 -42 21
-54 32 -15 14 -24 17 -29 9z"/>
<path d="M780 196 c0 -2 7 -9 15 -16 13 -11 14 -10 9 4 -5 14 -24 23 -24 12z"/>
<path d="M866 183 c-6 -14 -5 -15 5 -6 7 7 10 15 7 18 -3 3 -9 -2 -12 -12z"/>
<path d="M712 130 c0 -14 2 -19 5 -12 2 6 2 18 0 25 -3 6 -5 1 -5 -13z"/>
<path d="M90 116 c0 -21 35 -47 74 -53 20 -3 36 -2 36 3 -1 15 -110 64 -110
50z"/>
<path d="M820 121 c0 -6 4 -13 10 -16 6 -3 7 1 4 9 -7 18 -14 21 -14 7z"/>
<path d="M851 114 c0 -11 3 -14 6 -6 3 7 2 16 -1 19 -3 4 -6 -2 -5 -13z"/>
</g>
</svg>
